<svg xmlns="http://www.w3.org/2000/svg" xmlns:xlink="http://www.w3.org/1999/xlink" width="1172" height="368" viewBox="0 0 1172 368"><rect width="100%" height="100%" fill="#DDDDDD"/><path d="M277.39 221.93L295.72 221.93L295.72 234.97L239.32 234.97L239.32 221.93L259.97 221.93L259.97 162.50Q259.97 158.97 260.18 155.24L260.18 155.24L245.52 167.50Q244.25 168.49 243.02 168.74Q241.78 168.98 240.69 168.77Q239.60 168.56 238.75 168.03Q237.91 167.50 237.48 166.87L237.48 166.87L231.98 159.32L263.07 132.89L277.39 132.89L277.39 221.93ZM359.17 221.93L377.50 221.93L377.50 234.97L321.10 234.97L321.10 221.93L341.75 221.93L341.75 162.50Q341.75 158.97 341.96 155.24L341.96 155.24L327.30 167.50Q326.03 168.49 324.80 168.74Q323.56 168.98 322.47 168.77Q321.38 168.56 320.53 168.03Q319.69 167.50 319.26 166.87L319.26 166.87L313.76 159.32L344.85 132.89L359.17 132.89L359.17 221.93ZM392.87 133.03L463.29 133.03L463.29 140.57Q463.29 143.96 462.59 146.04Q461.88 148.12 461.18 149.53L461.18 149.53L422.55 229.05Q421.35 231.52 419.16 233.24Q416.98 234.97 413.31 234.97L413.31 234.97L400.69 234.97L440.10 157.07Q441.44 154.67 442.74 152.66Q444.05 150.65 445.67 148.82L445.67 148.82L396.88 148.82Q395.26 148.82 394.06 147.62Q392.87 146.42 392.87 144.80L392.87 144.80L392.87 133.03ZM511.09 218.76L537.25 218.76Q540.07 218.76 541.73 220.34Q543.38 221.93 543.38 224.54L543.38 224.54L543.38 234.97L473.45 234.97L473.45 229.19Q473.45 227.43 474.19 225.49Q474.93 223.55 476.55 222.00L476.55 222.00L507.50 190.98Q511.38 187.03 514.44 183.44Q517.51 179.84 519.55 176.32Q521.60 172.79 522.69 169.16Q523.78 165.53 523.78 161.51L523.78 161.51Q523.78 157.84 522.73 155.06Q521.67 152.27 519.73 150.37Q517.79 148.47 515.08 147.52Q512.36 146.56 508.98 146.56L508.98 146.56Q505.88 146.56 503.23 147.45Q500.59 148.33 498.54 149.91Q496.50 151.50 495.09 153.61Q493.68 155.73 492.98 158.27L492.98 158.27Q491.78 161.51 489.87 162.57Q487.97 163.63 484.37 163.06L484.37 163.06L475.21 161.44Q476.27 154.11 479.30 148.57Q482.33 143.04 486.88 139.34Q491.42 135.64 497.31 133.77Q503.20 131.90 509.97 131.90L509.97 131.90Q517.02 131.90 522.87 133.98Q528.72 136.06 532.88 139.87Q537.04 143.67 539.36 149.03Q541.69 154.39 541.69 160.95L541.69 160.95Q541.69 166.59 540.03 171.38Q538.38 176.17 535.59 180.55Q532.81 184.92 529.07 189.01Q525.33 193.09 521.25 197.32L521.25 197.32L498.26 220.80Q501.58 219.81 504.85 219.29Q508.13 218.76 511.09 218.76L511.09 218.76ZM658.30 211.64L649.06 220.73L625.16 196.83L601.05 220.87L591.82 211.78L615.93 187.60L592.94 164.61L602.11 155.45L625.09 178.43L647.93 155.59L657.24 164.75L634.33 187.67L658.30 211.64ZM716.95 163.06L707.79 161.44Q708.85 154.11 711.88 148.57Q714.91 143.04 719.46 139.34Q724.00 135.64 729.89 133.77Q735.78 131.90 742.55 131.90L742.55 131.90Q749.60 131.90 755.27 133.91Q760.95 135.92 764.96 139.48Q768.98 143.04 771.13 147.83Q773.28 152.63 773.28 158.20L773.28 158.20Q773.28 163.06 772.19 166.76Q771.10 170.46 769.05 173.21Q767.01 175.96 763.98 177.87Q760.95 179.77 757.14 181.04L757.14 181.04Q766.30 183.93 770.82 189.85Q775.33 195.77 775.33 204.73L775.33 204.73Q775.33 212.34 772.51 218.19Q769.69 224.04 764.89 228.03Q760.10 232.01 753.79 234.05Q747.48 236.10 740.43 236.10L740.43 236.10Q732.75 236.10 727.04 234.34Q721.32 232.57 717.09 229.12Q712.86 225.67 709.90 220.66Q706.94 215.65 704.83 209.10L704.83 209.10L712.51 205.93Q715.54 204.66 718.19 205.26Q720.83 205.85 722.03 208.11L722.03 208.11Q723.30 210.58 724.81 212.98Q726.33 215.37 728.45 217.24Q730.56 219.11 733.42 220.27Q736.27 221.44 740.22 221.44L740.22 221.44Q744.66 221.44 747.97 219.99Q751.29 218.54 753.51 216.22Q755.73 213.89 756.82 211.04Q757.91 208.18 757.91 205.29L757.91 205.29Q757.91 201.63 757.14 198.63Q756.36 195.63 753.90 193.52Q751.43 191.40 746.81 190.20Q742.19 189.01 734.44 189.01L734.44 189.01L734.44 176.60Q740.85 176.53 745.08 175.40Q749.31 174.27 751.82 172.26Q754.32 170.25 755.31 167.43Q756.29 164.61 756.29 161.23L756.29 161.23Q756.29 154.04 752.27 150.30Q748.26 146.56 741.56 146.56L741.56 146.56Q738.46 146.56 735.85 147.45Q733.24 148.33 731.16 149.91Q729.08 151.50 727.67 153.61Q726.26 155.73 725.55 158.27L725.55 158.27Q724.36 161.51 722.42 162.57Q720.48 163.63 716.95 163.06L716.95 163.06ZM849.00 133.03L818.76 170.04L815.23 174.41Q818.19 172.93 821.61 172.12Q825.03 171.31 828.98 171.31L828.98 171.31Q834.76 171.31 840.22 173.21Q845.69 175.12 849.85 178.96Q854.01 182.80 856.54 188.51Q859.08 194.22 859.08 201.84L859.08 201.84Q859.08 208.96 856.47 215.20Q853.86 221.44 849.14 226.09Q844.42 230.74 837.76 233.42Q831.09 236.10 823.06 236.10L823.06 236.10Q814.88 236.10 808.39 233.49Q801.91 230.88 797.32 226.19Q792.74 221.51 790.31 214.91Q787.88 208.32 787.88 200.29L787.88 200.29Q787.88 193.09 790.80 185.52Q793.73 177.94 799.86 169.76L799.86 169.76L824.18 137.12Q825.45 135.43 827.89 134.23Q830.32 133.03 833.49 133.03L833.49 133.03L849.00 133.03ZM822.70 221.86L822.70 221.86Q826.86 221.86 830.35 220.45Q833.84 219.04 836.35 216.50Q838.85 213.96 840.26 210.54Q841.67 207.12 841.67 203.11L841.67 203.11Q841.67 198.73 840.33 195.24Q838.99 191.75 836.52 189.32Q834.05 186.89 830.60 185.62Q827.15 184.35 822.99 184.35L822.99 184.35Q818.83 184.35 815.44 185.76Q812.06 187.17 809.66 189.68Q807.26 192.18 805.92 195.60Q804.59 199.02 804.59 202.96L804.59 202.96Q804.59 207.19 805.75 210.68Q806.91 214.17 809.20 216.64Q811.49 219.11 814.88 220.48Q818.26 221.86 822.70 221.86ZM904.62 222.49L904.62 222.49Q908.93 222.49 912.17 221.26Q915.41 220.03 917.63 217.84Q919.85 215.65 920.98 212.62Q922.11 209.59 922.11 206.07L922.11 206.07Q922.11 197.68 917.46 193.38Q912.80 189.08 904.62 189.08L904.62 189.08Q896.45 189.08 891.79 193.38Q887.14 197.68 887.14 206.07L887.14 206.07Q887.14 209.59 888.27 212.62Q889.40 215.65 891.62 217.84Q893.84 220.03 897.08 221.26Q900.32 222.49 904.62 222.49ZM904.62 145.01L904.62 145.01Q900.75 145.01 897.93 146.21Q895.11 147.41 893.24 149.42Q891.37 151.43 890.49 154.04Q889.61 156.65 889.61 159.54L889.61 159.54Q889.61 162.57 890.35 165.42Q891.09 168.28 892.85 170.50Q894.61 172.72 897.50 174.06Q900.39 175.40 904.62 175.40L904.62 175.40Q908.85 175.40 911.75 174.06Q914.64 172.72 916.40 170.50Q918.16 168.28 918.90 165.42Q919.64 162.57 919.64 159.54L919.64 159.54Q919.64 156.65 918.72 154.04Q917.81 151.43 915.98 149.42Q914.14 147.41 911.32 146.21Q908.50 145.01 904.62 145.01ZM921.83 181.81L921.83 181.81Q931.13 184.85 935.57 191.09Q940.02 197.32 940.02 206.35L940.02 206.35Q940.02 213.12 937.44 218.62Q934.87 224.11 930.22 227.99Q925.56 231.87 919.04 233.98Q912.52 236.10 904.62 236.10L904.62 236.10Q896.73 236.10 890.21 233.98Q883.69 231.87 879.03 227.99Q874.38 224.11 871.81 218.62Q869.23 213.12 869.23 206.35L869.23 206.35Q869.23 197.32 873.68 191.09Q878.12 184.85 887.42 181.81L887.42 181.81Q880.02 178.71 876.32 173.00Q872.62 167.29 872.62 159.25L872.62 159.25Q872.62 153.47 874.98 148.47Q877.34 143.46 881.57 139.76Q885.80 136.06 891.69 133.98Q897.57 131.90 904.62 131.90L904.62 131.90Q911.67 131.90 917.56 133.98Q923.45 136.06 927.68 139.76Q931.91 143.46 934.27 148.47Q936.63 153.47 936.63 159.25L936.63 159.25Q936.63 167.29 932.93 173.00Q929.23 178.71 921.83 181.81Z" fill="#999999"/></svg>