<svg xmlns="http://www.w3.org/2000/svg" xmlns:xlink="http://www.w3.org/1999/xlink" width="750" height="250" viewBox="0 0 750 250"><rect width="100%" height="100%" fill="#DDDDDD"/><path d="M149.04 88.49L199.49 88.49L199.49 93.89Q199.49 96.32 198.98 97.81Q198.48 99.30 197.97 100.31L197.97 100.31L170.30 157.27Q169.44 159.04 167.87 160.27Q166.31 161.51 163.68 161.51L163.68 161.51L154.64 161.51L182.87 105.71Q183.83 103.99 184.77 102.55Q185.70 101.11 186.86 99.80L186.86 99.80L151.92 99.80Q150.75 99.80 149.90 98.94Q149.04 98.08 149.04 96.92L149.04 96.92L149.04 88.49ZM226.00 99.80L223.42 115.00Q225.85 114.50 228.07 114.27Q230.29 114.04 232.36 114.04L232.36 114.04Q238.12 114.04 242.51 115.76Q246.91 117.48 249.89 120.51Q252.87 123.54 254.38 127.60Q255.90 131.67 255.90 136.36L255.90 136.36Q255.90 142.17 253.85 146.97Q251.81 151.77 248.17 155.17Q244.53 158.58 239.56 160.45Q234.58 162.32 228.73 162.32L228.73 162.32Q225.29 162.32 222.21 161.61Q219.13 160.91 216.43 159.72Q213.73 158.53 211.43 156.99Q209.13 155.45 207.31 153.73L207.31 153.73L211.15 148.43Q212.36 146.72 214.33 146.72L214.33 146.72Q215.60 146.72 216.91 147.52Q218.22 148.33 219.91 149.29Q221.61 150.25 223.90 151.06Q226.20 151.87 229.43 151.87L229.43 151.87Q232.87 151.87 235.49 150.76Q238.12 149.64 239.86 147.65Q241.60 145.65 242.49 142.90Q243.37 140.15 243.37 136.92L243.37 136.92Q243.37 130.96 239.91 127.60Q236.45 124.24 229.69 124.24L229.69 124.24Q224.48 124.24 219.03 126.16L219.03 126.16L211.25 123.94L217.31 88.49L253.37 88.49L253.37 93.79Q253.37 96.47 251.70 98.13Q250.04 99.80 246.05 99.80L246.05 99.80L226.00 99.80ZM317.56 125L317.56 125Q317.56 134.54 315.51 141.59Q313.47 148.63 309.86 153.23Q306.24 157.83 301.32 160.07Q296.40 162.32 290.69 162.32L290.69 162.32Q284.98 162.32 280.11 160.07Q275.24 157.83 271.65 153.23Q268.07 148.63 266.05 141.59Q264.03 134.54 264.03 125L264.03 125Q264.03 115.41 266.05 108.39Q268.07 101.37 271.65 96.77Q275.24 92.18 280.11 89.93Q284.98 87.68 290.69 87.68L290.69 87.68Q296.40 87.68 301.32 89.93Q306.24 92.18 309.86 96.77Q313.47 101.37 315.51 108.39Q317.56 115.41 317.56 125ZM304.68 125L304.68 125Q304.68 117.07 303.52 111.87Q302.36 106.67 300.41 103.59Q298.47 100.51 295.94 99.27Q293.42 98.03 290.69 98.03L290.69 98.03Q288.01 98.03 285.51 99.27Q283.01 100.51 281.10 103.59Q279.18 106.67 278.04 111.87Q276.90 117.07 276.90 125L276.90 125Q276.90 132.93 278.04 138.13Q279.18 143.33 281.10 146.41Q283.01 149.49 285.51 150.73Q288.01 151.97 290.69 151.97L290.69 151.97Q293.42 151.97 295.94 150.73Q298.47 149.49 300.41 146.41Q302.36 143.33 303.52 138.13Q304.68 132.93 304.68 125ZM397.75 144.80L391.13 151.31L374.02 134.19L356.74 151.41L350.13 144.90L367.40 127.58L350.94 111.11L357.50 104.55L373.96 121.01L390.33 104.65L396.99 111.21L380.58 127.63L397.75 144.80ZM458.55 149.90L477.29 149.90Q479.31 149.90 480.49 151.03Q481.68 152.17 481.68 154.04L481.68 154.04L481.68 161.51L431.59 161.51L431.59 157.37Q431.59 156.11 432.12 154.72Q432.65 153.33 433.81 152.22L433.81 152.22L455.98 130.00Q458.75 127.17 460.95 124.60Q463.15 122.02 464.61 119.50Q466.08 116.97 466.86 114.37Q467.64 111.77 467.64 108.89L467.64 108.89Q467.64 106.26 466.88 104.27Q466.13 102.28 464.74 100.91Q463.35 99.55 461.41 98.87Q459.46 98.18 457.04 98.18L457.04 98.18Q454.82 98.18 452.92 98.82Q451.03 99.45 449.56 100.58Q448.10 101.72 447.09 103.23Q446.08 104.75 445.57 106.57L445.57 106.57Q444.72 108.89 443.35 109.65Q441.99 110.41 439.41 110.00L439.41 110.00L432.85 108.84Q433.61 103.59 435.78 99.62Q437.95 95.66 441.21 93.01Q444.46 90.36 448.68 89.02Q452.90 87.68 457.74 87.68L457.74 87.68Q462.79 87.68 466.99 89.17Q471.18 90.66 474.16 93.39Q477.14 96.11 478.80 99.95Q480.47 103.79 480.47 108.49L480.47 108.49Q480.47 112.53 479.28 115.96Q478.10 119.39 476.10 122.53Q474.11 125.66 471.43 128.59Q468.75 131.51 465.82 134.54L465.82 134.54L449.36 151.36Q451.73 150.65 454.08 150.28Q456.43 149.90 458.55 149.90L458.55 149.90ZM509.41 99.80L506.83 115.00Q509.25 114.50 511.48 114.27Q513.70 114.04 515.77 114.04L515.77 114.04Q521.53 114.04 525.92 115.76Q530.31 117.48 533.29 120.51Q536.27 123.54 537.79 127.60Q539.30 131.67 539.30 136.36L539.30 136.36Q539.30 142.17 537.26 146.97Q535.21 151.77 531.58 155.17Q527.94 158.58 522.97 160.45Q517.99 162.32 512.13 162.32L512.13 162.32Q508.70 162.32 505.62 161.61Q502.54 160.91 499.84 159.72Q497.13 158.53 494.84 156.99Q492.54 155.45 490.72 153.73L490.72 153.73L494.56 148.43Q495.77 146.72 497.74 146.72L497.74 146.72Q499.00 146.72 500.32 147.52Q501.63 148.33 503.32 149.29Q505.01 150.25 507.31 151.06Q509.61 151.87 512.84 151.87L512.84 151.87Q516.27 151.87 518.90 150.76Q521.53 149.64 523.27 147.65Q525.01 145.65 525.89 142.90Q526.78 140.15 526.78 136.92L526.78 136.92Q526.78 130.96 523.32 127.60Q519.86 124.24 513.09 124.24L513.09 124.24Q507.89 124.24 502.44 126.16L502.44 126.16L494.66 123.94L500.72 88.49L536.78 88.49L536.78 93.79Q536.78 96.47 535.11 98.13Q533.44 99.80 529.45 99.80L529.45 99.80L509.41 99.80ZM600.96 125L600.96 125Q600.96 134.54 598.92 141.59Q596.87 148.63 593.26 153.23Q589.65 157.83 584.73 160.07Q579.80 162.32 574.10 162.32L574.10 162.32Q568.39 162.32 563.52 160.07Q558.64 157.83 555.06 153.23Q551.47 148.63 549.45 141.59Q547.43 134.54 547.43 125L547.43 125Q547.43 115.41 549.45 108.39Q551.47 101.37 555.06 96.77Q558.64 92.18 563.52 89.93Q568.39 87.68 574.10 87.68L574.10 87.68Q579.80 87.68 584.73 89.93Q589.65 92.18 593.26 96.77Q596.87 101.37 598.92 108.39Q600.96 115.41 600.96 125ZM588.08 125L588.08 125Q588.08 117.07 586.92 111.87Q585.76 106.67 583.82 103.59Q581.87 100.51 579.35 99.27Q576.82 98.03 574.10 98.03L574.10 98.03Q571.42 98.03 568.92 99.27Q566.42 100.51 564.50 103.59Q562.58 106.67 561.45 111.87Q560.31 117.07 560.31 125L560.31 125Q560.31 132.93 561.45 138.13Q562.58 143.33 564.50 146.41Q566.42 149.49 568.92 150.73Q571.42 151.97 574.10 151.97L574.10 151.97Q576.82 151.97 579.35 150.73Q581.87 149.49 583.82 146.41Q585.76 143.33 586.92 138.13Q588.08 132.93 588.08 125Z" fill="#999999"/></svg>